<svg width="110" height="110" viewBox="0 0 110 110" xmlns="http://www.w3.org/2000/svg"><g fill="#47848F" fill-rule="evenodd"><path d="M40.224 24.291c-14.178-2.582-25.395.122-29.87 7.872C7.016 37.948 7.97 45.612 12.664 53.8a1.5 1.5 0 0 0 2.603-1.492c-4.214-7.35-5.034-13.932-2.313-18.644 3.694-6.398 13.661-8.801 26.733-6.42a1.5 1.5 0 1 0 .538-2.952zm-20.19 39.452c5.728 6.296 13.17 12.2 21.658 17.1 20.556 11.869 42.441 15.041 53.237 7.68a1.5 1.5 0 1 0-1.69-2.479c-9.627 6.564-30.381 3.556-50.047-7.798-8.225-4.75-15.424-10.461-20.94-16.522a1.5 1.5 0 1 0-2.219 2.019zm84.926 19.723a6.998 6.998 0 1 0-13.996 0 6.998 6.998 0 0 0 13.996 0zm-3 0a3.998 3.998 0 1 1-7.996 0 3.998 3.998 0 0 1 7.996 0z"/><path d="M91.5 61.975c9.284-10.967 12.528-22.003 8.062-29.738-3.286-5.692-10.229-8.695-19.45-8.815a1.5 1.5 0 1 0-.04 3c8.265.107 14.217 2.682 16.892 7.315 3.686 6.385.805 16.19-7.753 26.3a1.5 1.5 0 1 0 2.29 1.938zm-23.875-37.2c-8.388 1.797-17.316 5.31-25.89 10.261C20.515 47.288 6.67 65.356 8.595 78.47a1.5 1.5 0 1 0 2.968-.436C9.861 66.435 22.961 49.34 43.235 37.634c8.31-4.797 16.945-8.196 25.019-9.926a1.5 1.5 0 1 0-.629-2.933z"/><path d="M33.238 87.553c4.854 13.554 12.799 21.903 21.742 21.903 6.523 0 12.555-4.444 17.255-12.263a1.5 1.5 0 1 0-2.571-1.545c-4.21 7.002-9.376 10.808-14.684 10.808-7.383 0-14.443-7.419-18.918-19.914a1.5 1.5 0 1 0-2.824 1.011zm44.372-2.65c2.51-8.024 3.86-17.28 3.86-26.926 0-24.073-8.427-44.828-20.441-50.163a1.5 1.5 0 1 0-1.218 2.742c10.675 4.74 18.658 24.404 18.658 47.42 0 9.35-1.304 18.304-3.722 26.031a1.5 1.5 0 0 0 2.863.896zM104.96 83.466a6.998 6.998 0 1 0-13.996 0 6.998 6.998 0 0 0 13.996 0zm-3 0a3.998 3.998 0 1 1-7.996 0 3.998 3.998 0 0 1 7.996 0zM11.898 90.464a6.998 6.998 0 1 0 0-13.995 6.998 6.998 0 0 0 0 13.995zm0-3a3.998 3.998 0 1 1 0-7.995 3.998 3.998 0 0 1 0 7.995z"/><path d="M54.98 14.995A6.998 6.998 0 1 0 54.98 1a6.998 6.998 0 0 0 0 13.995zm0-3a3.998 3.998 0 1 1 0-7.995 3.998 3.998 0 0 1 0 7.995zM56.041 62.892a5.029 5.029 0 1 1-2.123-9.83 5.029 5.029 0 0 1 2.123 9.83z"/></g></svg>